<?xml version="1.0" encoding="UTF-8" standalone="no"?>
<!DOCTYPE svg PUBLIC "-//W3C//DTD SVG 1.1//EN" "http://www.w3.org/Graphics/SVG/1.1/DTD/svg11.dtd">
<svg width="100%" height="100%" viewBox="0 0 700 320" version="1.1" xmlns="http://www.w3.org/2000/svg" xmlns:xlink="http://www.w3.org/1999/xlink" xml:space="preserve" xmlns:affinity="https://www.affinity.studio/" style="fill-rule:evenodd;clip-rule:evenodd;">
    <path d="M192,40C196.415,40 200,43.585 200,48L200,142C200,146.415 196.415,150 192,150L28,150C23.585,150 20,146.415 20,142L20,48C20,43.585 23.585,40 28,40L192,40Z" style="fill:rgb(227,240,244);stroke:rgb(28,123,150);stroke-width:1.5px;"/>
    <g transform="matrix(1,0,0,1,110,65)">
        <text x="-16.98px" y="0px" style="font-family:'Arial-BoldMT', 'Arial', sans-serif;font-weight:700;font-size:13px;fill:rgb(10,58,74);">Gerät</text>
    </g>
    <g transform="matrix(1,0,0,1,110,88)">
        <text x="-52.019px" y="0px" style="font-family:'ArialMT', 'Arial', sans-serif;font-size:13px;fill:rgb(10,58,74);">Privater Schlüssel</text>
    </g>
    <g transform="matrix(1,0,0,1,110,105)">
        <text x="-35.039px" y="0px" style="font-family:'ArialMT', 'Arial', sans-serif;font-size:13px;fill:rgb(10,58,74);">(verlässt nie</text>
    </g>
    <g transform="matrix(1,0,0,1,110,120)">
        <text x="-30.707px" y="0px" style="font-family:'ArialMT', 'Arial', sans-serif;font-size:13px;fill:rgb(10,58,74);">das Gerät)</text>
    </g>
    <g transform="matrix(1,0,0,1.341226,0,-58.008357)">
        <path d="M174,170C177.311,170 180,172.005 180,174.474L180,205.526C180,207.995 177.311,210 174,210L46,210C42.689,210 40,207.995 40,205.526L40,174.474C40,172.005 42.689,170 46,170L174,170Z" style="fill:rgb(252,240,220);stroke:rgb(232,147,10);stroke-width:1.5px;"/>
    </g>
    <g transform="matrix(1,0,0,1,110,194)">
        <text x="-42.996px" y="0px" style="font-family:'ArialMT', 'Arial', sans-serif;font-size:13px;fill:rgb(107,58,6);">Entsperren per</text>
    </g>
    <g transform="matrix(1,0,0,1,110,208)">
        <text x="-63.21px" y="0px" style="font-family:'ArialMT', 'Arial', sans-serif;font-size:13px;fill:rgb(107,58,6);">Biometrie / PIN (lokal)</text>
    </g>
    <g transform="matrix(1,0,0,0.923187,0,3.072508)">
        <path d="M672,40C676.415,40 680,43.883 680,48.666L680,141.334C680,146.117 676.415,150 672,150L508,150C503.585,150 500,146.117 500,141.334L500,48.666C500,43.883 503.585,40 508,40L672,40Z" style="fill:rgb(234,244,226);stroke:rgb(76,154,42);stroke-width:1.5px;"/>
    </g>
    <g transform="matrix(1,0,0,1,590,65)">
        <text x="-45.522px" y="0px" style="font-family:'Arial-BoldMT', 'Arial', sans-serif;font-weight:700;font-size:13px;fill:rgb(30,70,32);">Server / Dienst</text>
    </g>
    <g transform="matrix(1,0,0,1,590,88)">
        <g transform="matrix(13,0,0,13,-52.609375,0)">
        </g>
        <g transform="matrix(13,0,0,13,-49.137207,0)">
        </g>
        <text x="-62.721px" y="0px" style="font-family:'ArialMT', 'Arial', sans-serif;font-size:13px;fill:rgb(30,70,32);">Öﬀentlicher Schlüssel</text>
    </g>
    <g transform="matrix(1,0,0,1,590,105)">
        <text x="-32.51px" y="0px" style="font-family:'ArialMT', 'Arial', sans-serif;font-size:13px;fill:rgb(30,70,32);">(pro Nutzer</text>
    </g>
    <g transform="matrix(1,0,0,1,590,120)">
        <text x="-28.904px" y="0px" style="font-family:'ArialMT', 'Arial', sans-serif;font-size:13px;fill:rgb(30,70,32);">hinterlegt)</text>
    </g>
    <g transform="matrix(1.016949,0,0,1,-8.474576,0)">
        <path d="M500,70L205,70" style="fill:none;fill-rule:nonzero;stroke:rgb(62,74,81);stroke-width:1.5px;"/>
    </g>
    <g transform="matrix(1,0,0,1,352,60)">
        <text x="-84.793px" y="0px" style="font-family:'Arial-BoldMT', 'Arial', sans-serif;font-weight:700;font-size:14px;fill:rgb(62,74,81);">1. Challenge (Zufallswert)</text>
    </g>
    <g transform="matrix(1.016949,0,0,1,-3.389831,0)">
        <path d="M200,115L495,115" style="fill:none;fill-rule:nonzero;stroke:rgb(62,74,81);stroke-width:1.5px;"/>
    </g>
    <g transform="matrix(1,0,0,1,352,135)">
        <text x="-65.857px" y="0px" style="font-family:'Arial-BoldMT', 'Arial', sans-serif;font-weight:700;font-size:14px;fill:rgb(62,74,81);">2. Signierte <tspan x="12.981px 23.092px " y="0px 0px ">An</tspan>twort</text>
    </g>
    <g transform="matrix(1,0,0,1.176471,0,-26.470588)">
        <path d="M110,150L110,167" style="fill:none;fill-rule:nonzero;stroke:rgb(62,74,81);stroke-width:1.5px;"/>
    </g>
    <g transform="matrix(1,0,0,0.924172,-6.716213,-14.407304)">
        <path d="M674,230C677.311,230 680,232.909 680,236.492L680,283.508C680,287.091 677.311,290 674,290L446,290C442.689,290 440,287.091 440,283.508L440,236.492C440,232.909 442.689,230 446,230L674,230Z" style="fill:rgb(238,241,242);stroke:rgb(92,105,113);stroke-width:1.5px;"/>
    </g>
    <g transform="matrix(1,0,0,1,553.283787,221.152275)">
        <text x="-67.199px" y="0px" style="font-family:'ArialMT', 'Arial', sans-serif;font-size:13px;fill:rgb(62,74,81);">3. Server prüft Signatur</text>
    </g>
    <g transform="matrix(1,0,0,1,553.283787,238.152275)">
        <g transform="matrix(13,0,0,13,-46.829834,0)">
        </g>
        <g transform="matrix(13,0,0,13,-43.357666,0)">
        </g>
        <text x="-75.001px" y="0px" style="font-family:'ArialMT', 'Arial', sans-serif;font-size:13px;fill:rgb(62,74,81);">mit öﬀentlichem Schlüssel</text>
    </g>
    <g transform="matrix(0.963656,0.094493,0.094493,0.754317,-8.677513,-26.748345)">
        <path d="M590,150L560,228" style="fill:none;fill-rule:nonzero;stroke:rgb(62,74,81);stroke-width:1.5px;"/>
    </g>
</svg>
